<svg id="svg" version="1.1" xmlns="http://www.w3.org/2000/svg" xmlns:xlink="http://www.w3.org/1999/xlink" width="400" height="400" viewBox="0, 0, 400,400"><g id="svgg"><path id="path0" d="M134.074 200.185 L 134.074 288.519 200.000 288.519 L 265.926 288.519 265.926 272.407 L 265.926 256.296 216.111 256.296 L 166.296 256.296 166.296 236.296 L 166.296 216.296 216.111 216.296 L 265.926 216.296 265.926 200.185 L 265.926 184.074 216.108 184.074 L 166.290 184.074 166.386 163.981 L 166.481 143.889 216.204 143.795 L 265.926 143.701 265.926 127.776 L 265.926 111.852 200.000 111.852 L 134.074 111.852 134.074 200.185 " stroke="none" fill="#cbcbc3" fill-rule="evenodd"></path><path id="path1" d="M167.344 111.759 C 185.541 111.812,215.208 111.812,233.270 111.759 C 251.333 111.706,236.444 111.663,200.185 111.663 C 163.926 111.663,149.147 111.706,167.344 111.759 M191.389 143.981 C 205.088 144.035,227.505 144.035,241.204 143.981 C 254.903 143.928,243.694 143.884,216.296 143.884 C 188.898 143.884,177.690 143.928,191.389 143.981 " stroke="none" fill="#7c7c74" fill-rule="evenodd"></path><path id="path2" d="M0.000 200.000 L 0.000 400.000 200.000 400.000 L 400.000 400.000 400.000 200.000 L 400.000 0.000 200.000 0.000 L 0.000 0.000 0.000 200.000 M265.926 127.778 L 265.926 144.074 216.296 144.074 L 166.667 144.074 166.667 163.889 L 166.667 183.704 216.296 183.704 L 265.926 183.704 265.926 200.000 L 265.926 216.296 216.296 216.296 L 166.667 216.296 166.667 236.111 L 166.667 255.926 216.296 255.926 L 265.926 255.926 265.926 272.222 L 265.926 288.519 200.000 288.519 L 134.074 288.519 134.074 200.000 L 134.074 111.481 200.000 111.481 L 265.926 111.481 265.926 127.778 " stroke="none" fill="#140c0c" fill-rule="evenodd"></path><path id="path3" d="M166.477 163.889 L 166.481 183.889 216.111 183.891 L 265.741 183.893 216.207 183.797 L 166.673 183.701 166.572 163.795 L 166.472 143.889 166.477 163.889 M166.469 236.111 C 166.469 247.111,166.516 251.558,166.574 245.992 C 166.632 240.427,166.631 231.427,166.574 225.992 C 166.516 220.558,166.469 225.111,166.469 236.111 " stroke="none" fill="#746c6c" fill-rule="evenodd"></path><path id="path4" d="M191.389 256.204 C 205.088 256.257,227.505 256.257,241.204 256.204 C 254.903 256.150,243.694 256.106,216.296 256.106 C 188.898 256.106,177.690 256.150,191.389 256.204 " stroke="none" fill="#443c3c" fill-rule="evenodd"></path></g></svg>